<?xml version="1.0" encoding="UTF-8" standalone="no"?>
<!-- Created with Inkscape (http://www.inkscape.org/) -->

<svg
   xmlns:dc="http://purl.org/dc/elements/1.1/"
   xmlns:cc="http://creativecommons.org/ns#"
   xmlns:rdf="http://www.w3.org/1999/02/22-rdf-syntax-ns#"
   xmlns:svg="http://www.w3.org/2000/svg"
   xmlns="http://www.w3.org/2000/svg"
   xmlns:sodipodi="http://sodipodi.sourceforge.net/DTD/sodipodi-0.dtd"
   xmlns:inkscape="http://www.inkscape.org/namespaces/inkscape"
   width="210mm"
   height="297mm"
   viewBox="0 0 210 297"
   version="1.1"
   id="svg3719"
   inkscape:version="0.92.3 (2405546, 2018-03-11)"
   sodipodi:docname="drawingfin.svg">
  <defs
     id="defs3713" />
  <sodipodi:namedview
     id="base"
     pagecolor="#ffffff"
     bordercolor="#666666"
     borderopacity="1.0"
     inkscape:pageopacity="0.0"
     inkscape:pageshadow="2"
     inkscape:zoom="0.35"
     inkscape:cx="-64.285714"
     inkscape:cy="560"
     inkscape:document-units="mm"
     inkscape:current-layer="layer1"
     showgrid="false"
     inkscape:window-width="1920"
     inkscape:window-height="1017"
     inkscape:window-x="-8"
     inkscape:window-y="-8"
     inkscape:window-maximized="1" />
  <metadata
     id="metadata3716">
    <rdf:RDF>
      <cc:Work
         rdf:about="">
        <dc:format>image/svg+xml</dc:format>
        <dc:type
           rdf:resource="http://purl.org/dc/dcmitype/StillImage" />
        <dc:title></dc:title>
      </cc:Work>
    </rdf:RDF>
  </metadata>
  <g
     inkscape:label="Layer 1"
     inkscape:groupmode="layer"
     id="layer1">
    <g
       aria-label="S"
       style="font-style:normal;font-weight:normal;font-size:10.58333302px;line-height:1.25;font-family:sans-serif;letter-spacing:0px;word-spacing:0px;fill:#000000;fill-opacity:1;stroke:none;stroke-width:0.26458332"
       id="text3723">
      <path
         d="m 60.173814,182.52333 h -3.175 Q 49.76687,182.34694 42.534925,180.40666 35.302981,178.64277 28.600203,175.115 21.721037,171.41083 16.42937,166.47194 11.137704,161.35666 8.1390927,155.71222 l 18.8736103,-9.70139 q 1.411112,2.64583 4.409723,5.46806 2.998611,2.64583 7.055555,4.93889 4.056944,2.11666 8.819444,3.52777 4.938889,1.41111 10.230556,1.41111 h 0.352777 0.352778 q 4.056945,0.35278 9.877778,-0.88194 5.997222,-1.23472 11.465277,-4.23333 11.641667,-6.52639 12.347222,-17.4625 0.529167,-7.05556 -3.527777,-11.28889 -3.880556,-4.23334 -11.465278,-6.52639 -7.584722,-2.46945 -17.109722,-2.46945 -2.822222,0 -7.761111,-0.35277 -4.938889,-0.35278 -10.583333,-1.76389 -14.111111,-3.52778 -22.224999,-11.81806 -4.586112,-5.115275 -6.879167,-11.465275 -2.293056,-6.526388 -1.940278,-14.11111 0.881945,-15.345834 10.936111,-25.4 4.233333,-4.409722 9.877778,-7.408333 5.644444,-2.998611 12.347222,-4.586111 8.290277,-1.940278 16.933333,-1.411111 8.643055,0.352777 16.933333,2.822222 8.995833,2.998611 15.698611,7.9375 6.879164,4.7625 10.583334,11.465277 L 85.397425,72.809444 Q 83.633536,69.810832 79.929369,67.341388 76.225203,64.871944 71.109925,63.284444 65.641869,61.520555 59.644647,61.344166 53.823814,60.991388 48.355759,62.22611 32.30437,65.930277 31.598814,80.217777 q -0.352777,4.056944 0.705556,6.35 1.234722,2.116666 2.293056,3.351388 4.056944,4.056945 11.288888,5.820834 7.231945,1.5875 13.934722,1.5875 14.2875,0 25.576389,4.056941 11.465277,4.05695 18.520835,11.64167 10.58333,11.28889 9.17222,27.51667 -1.05833,11.81805 -7.9375,20.99027 -5.820833,7.9375 -15.169444,13.22917 -6.702778,3.70417 -14.640278,5.64444 -7.761111,2.11667 -15.169444,2.11667 z"
         style="font-style:normal;font-variant:normal;font-weight:600;font-stretch:normal;font-size:176.3888855px;font-family:'TYPOGRAPH PRO';-inkscape-font-specification:'TYPOGRAPH PRO Semi-Bold';fill:#008080;stroke-width:0.26458332"
         id="path4589" />
    </g>
    <g
       aria-label="y"
       style="font-style:normal;font-weight:normal;font-size:176.3888855px;line-height:1.25;font-family:sans-serif;letter-spacing:0px;word-spacing:0px;fill:#000000;fill-opacity:1;stroke:none;stroke-width:0.26458332"
       id="text3727">
      <path
         d="m 97.366673,250.50882 z m 6.879167,-15.34583 q 13.75833,-7.05556 26.28194,-18.52084 12.7,-11.46527 23.28334,-25.57638 10.58333,-14.11112 18.52083,-29.80973 8.11389,-15.875 12.7,-31.75 l 18.34444,5.99723 q -3.88055,16.93333 -12.7,34.57222 -8.81944,17.4625 -20.81389,33.51389 -11.99444,15.875 -26.28194,29.10416 -14.11111,13.22917 -28.75139,21.16667 z m 7.05555,-107.77361 q 4.40973,3.70416 9.525,9.525 5.29167,5.64444 10.40695,12.17083 5.29167,6.52639 10.05417,13.40556 4.7625,6.70277 8.29027,12.34722 l -16.58055,11.64166 q -3.175,-5.11527 -7.58472,-11.28888 -4.23334,-6.17362 -9.17223,-12.17084 -4.7625,-6.17361 -9.70139,-11.46528 -4.93888,-5.29166 -9.172217,-8.64305 z"
         style="font-style:normal;font-variant:normal;font-weight:normal;font-stretch:normal;font-size:176.3888855px;font-family:Electroharmonix;-inkscape-font-specification:Electroharmonix;fill:#008080;fill-opacity:1;stroke-width:0.26458332"
         id="path4586" />
    </g>
  </g>
</svg>
